<?xml version="1.0" encoding="utf-8"?>

<!DOCTYPE svg PUBLIC "-//W3C//DTD SVG 1.1//EN" "http://www.w3.org/Graphics/SVG/1.1/DTD/svg11.dtd">
<!-- Uploaded to: SVG Repo, www.svgrepo.com, Generator: SVG Repo Mixer Tools -->
<svg height="800px" width="800px" version="1.1" id="_x32_" xmlns="http://www.w3.org/2000/svg" xmlns:xlink="http://www.w3.org/1999/xlink" 
	 viewBox="0 0 512 512"  xml:space="preserve">
<style type="text/css">
	.st0{fill:#000000;}
</style>
<g>
	<path class="st0" d="M220.787,262.318l-57.301-17.615c0,0-0.012,29.537,20.678,38.425c20.702,8.877,47.312-14.775,47.312-14.775
		l-8.819-30.428L220.787,262.318z"/>
	<path class="st0" d="M428.639,214.56c0-11.111-4.45-35.618-4.45-35.618c-2.145-7.484-8.362-33.439-29.868-58.402
		c6.366-16.303,11.374-38.345,5.351-60.798c-12.254-45.658-40.98-55.356-50.12-58.983c-9.138-3.674-18.009,6.822-9.092,13.508
		c14.558,10.93,18.39,41.322-1.724,67.45c-21.642-8.592-48.704-14.148-82.742-14.148c-34.043,0-61.105,5.556-82.748,14.148
		c-20.102-26.127-16.263-56.52-1.706-67.45c8.899-6.685,0.035-17.182-9.104-13.508c-9.138,3.627-37.871,13.325-50.118,58.983
		c-6.018,22.475-1.027,44.494,5.345,60.798c-21.5,24.962-27.706,50.918-29.851,58.402c0,0-4.449,24.507-4.449,35.618
		c0,0-28.973-22.281-69.058-2.213c3.395,32.242,42.972,77.398,87.249,103.022c0,0,2.852,87.756,17.866,65.235
		c0,18.768,43.182,90.107,43.182,90.107l16.885-26.286C198.271,474.476,255.994,512,255.994,512s57.728-37.524,76.502-67.575
		l16.885,26.286c0,0,43.171-71.339,43.171-90.107c15.025,22.522,17.9-65.235,17.9-65.235c44.267-25.625,83.832-70.78,87.244-103.022
		C457.583,192.279,428.639,214.56,428.639,214.56z M78.587,240.755c0,0-25.34-21.106-46.457-22.52c0,0,29.572-8.454,47.872,8.431
		L78.587,240.755z M150.401,22.538c0,0-27.319,30.758-21.125,77.409C110.976,74.62,125.033,30.788,150.401,22.538z M134.434,160.985
		c-13.132,9.389-0.708-34.728,43.182-54.442c37.541-16.908,63.815-13.166,52.555-5.648
		C219.127,108.276,168.232,112.178,134.434,160.985z M255.994,315.37v12.663c-1.528,1.94-5.744,0.229-9.851-3.319
		c-51.335,44.825-67.586-5.111-67.586-5.111c-33.411-26.754-50.684-105.612,7.034-128.121
		c38.539-15.026,70.403,36.131,70.403,36.131V315.37z M294.938,229.484c-0.94,9.378,6.56,15.972,26.274,7.518
		c2.813,0.924-20.643,15.026-27.214,11.261C287.426,244.52,294.938,229.484,294.938,229.484z M324.499,329.926
		c-5.63,0-19.703-21.585-22.515-28.18c-2.813-6.548,2.812-9.378,2.812-9.378c5.63,3.776,21.585,7.496,34.718-2.818
		C347.031,285.797,330.14,329.926,324.499,329.926z M329.068,276.168c-15.613,6.708-35.693-11.135-35.693-11.135l8.055-4.541
		l43.24-13.315C344.67,247.178,344.692,269.482,329.068,276.168z"/>
</g>
</svg>